PathFileType	4	(X/Y/Z)	Kaydara																																																																																																																																																																																																																												
DataRate	CameraRate	NumFrames	NumMarkers	Units	OrigDataRate	OrigDataStartFrame	OrigNumFrames																																																																																																																																																																																																																								
60	60	4	74	mm	60	2061	203																																																																																																																																																																																																																								
Frame#	Time	N_lasi			N_rasi			N_rpsi			N_lpsi			N_fneck			N_bneck			N_fhead			N_rhead			N_lhead			N_rshld			N_relbtop			N_relbext			N_relblow			N_rwrext			N_rwrtop			N_rwrlow			N_lshld			N_lelblow			N_lelbtop			N_lwrext			N_lwrtop			N_lwrlow			N_rtopleg			N_ltopleg			N_rkneefr			N_rkneebk			N_rkneeis			N_lkneefr			N_lknssbk			N_lkneeis			N_rankfr			N_rankis			N_rankbk			N_lankfr			N_lankbk			N_lankis			D_lasi			D_rasi			D_lpsi			D_fneck			D_bneck			D_fhead			D_rhead			D_lhead			D_rshld			D_relbtop			D_relbext			D_relblow			D_rwrext			D_rwrtop			D_rwrlow			D_lshld			D_lelbext			D_lelblow			D_lelbtop			D_lwrext			D_lwrtop			D_lwrlow			D_rtopleg			D_ltopleg			D_rkneefr			D_rkneebk			D_rkneeis			D_lkneefr			D_lknssbk			D_lkneeis			D_rankfr			D_rankis			D_rankbk			D_lankfr			D_lankbk			D_lankis			D_rpsi			N_lelbext		
		X1	Y1	Z1	X2	Y2	Z2	X3	Y3	Z3	X4	Y4	Z4	X5	Y5	Z5	X6	Y6	Z6	X7	Y7	Z7	X8	Y8	Z8	X9	Y9	Z9	X10	Y10	Z10	X11	Y11	Z11	X12	Y12	Z12	X13	Y13	Z13	X14	Y14	Z14	X15	Y15	Z15	X16	Y16	Z16	X17	Y17	Z17	X18	Y18	Z18	X19	Y19	Z19	X20	Y20	Z20	X21	Y21	Z21	X22	Y22	Z22	X23	Y23	Z23	X24	Y24	Z24	X25	Y25	Z25	X26	Y26	Z26	X27	Y27	Z27	X28	Y28	Z28	X29	Y29	Z29	X30	Y30	Z30	X31	Y31	Z31	X32	Y32	Z32	X33	Y33	Z33	X34	Y34	Z34	X35	Y35	Z35	X36	Y36	Z36	X37	Y37	Z37	X38	Y38	Z38	X39	Y39	Z39	X40	Y40	Z40	X41	Y41	Z41	X42	Y42	Z42	X43	Y43	Z43	X44	Y44	Z44	X45	Y45	Z45	X46	Y46	Z46	X47	Y47	Z47	X48	Y48	Z48	X49	Y49	Z49	X50	Y50	Z50	X51	Y51	Z51	X52	Y52	Z52	X53	Y53	Z53	X54	Y54	Z54	X55	Y55	Z55	X56	Y56	Z56	X57	Y57	Z57	X58	Y58	Z58	X59	Y59	Z59	X60	Y60	Z60	X61	Y61	Z61	X62	Y62	Z62	X63	Y63	Z63	X64	Y64	Z64	X65	Y65	Z65	X66	Y66	Z66	X67	Y67	Z67	X68	Y68	Z68	X69	Y69	Z69	X70	Y70	Z70	X71	Y71	Z71	X72	Y72	Z72	X73	Y73	Z73	X74	Y74	Z74
																																																																																																																																																																																																																															
51	34.333	-533.78368	1240.75012	-86.71349	-505.86452	1284.78058	-311.74	-249.81619	1251.49208	-373.89572	-266.06186	1208.82973	-16.1553	-389.50962	1611.60919	-187.12183	-227.01645	1665.38651	-165.21917	-436.28422	1793.39996	-191.62407	-238.65618	1770.28641	-238.73119	-298.49483	1778.27499	-92.4481	-223.90301	1652.81052	-278.19803	-331.53717	1805.56503	-456.45313	-409.65355	1778.23029	-417.43107	-325.26764	1829.90311	-366.98933	-465.54981	2123.75488	-494.71924	-454.81438	2135.5249	-449.10843	-490.05539	2118.62411	-419.55364	-300.294	1519.06845	79.4698	-340.03605	1197.23351	102.82392	-252.73306	1195.31143	95.87957	-260.74492	885.72655	133.8096	-303.7641	875.28854	151.29123	-326.71776	876.34315	102.71437	-400.37361	1096.49414	-457.76825	-370.30758	1012.76787	33.00201	-429.18209	561.71417	-267.70357	-323.11672	578.83907	-335.47588	-368.22178	565.24372	-174.30031	-383.00426	540.49526	-108.09696	-257.08685	557.12234	-47.99052	-256.80483	547.87888	-197.48108	-295.72672	139.5157	-273.89853	-298.66833	154.82986	-194.38658	-216.75989	141.90866	-218.01126	-333.51353	193.11069	-122.13506	-260.88272	186.67702	-78.49551	-296.88272	165.67702	-162.49551	-455.51006	1038.42705	1742.06207	-421.36833	1056.85089	1456.0408	-257.33913	1130.91354	1745.38773	-424.73923	1564.27948	1603.59512	-288.62671	1588.91174	1607.39639	-451.96831	1783.59451	1604.58572	-294.75889	1726.01654	1527.14005	-302.49393	1725.19058	1682.09915	-365.83221	1497.26669	1409.40857	-328.96664	1203.40538	1260.20103	-368.45181	1187.24236	1323.22266	-400.85663	1253.8076	1248.21533	-495.72826	1023.84651	1183.98262	-544.08184	1055.41954	1174.7863	-550.43175	1057.34192	1229.17191	-361.69048	1500.83786	1824.93546	-376.59355	1191.67152	1894.8494	-395.03815	1255.55298	1967.11761	-330.94864	1205.08476	1962.65167	-507.00539	1021.16936	2020.3067	-542.60803	1042.90527	2008.91357	-542.52594	1042.14432	1957.70172	-329.00455	1004.84131	1408.7468	-315.32154	1009.83421	1809.22058	-374.79507	455.62263	1450.18631	-274.95747	491.21151	1423.181	-282.68509	458.41038	1543.0278	-356.67301	448.71922	1771.46988	-243.95767	486.08002	1787.64374	-315.62592	444.35406	1679.86877	-324.01382	130.50475	1417.71484	-295.10124	126.87167	1482.59567	-243.77262	128.2151	1418.26782	-323.13404	135.20227	1792.79938	-250.41811	124.96186	1806.87805	-293.80108	124.35606	1733.54599	-230.58191	1144.98848	1528.16696	-319.34929	1168.76122	18.82376
52	34.35	-533.24665	1240.70091	-86.78685	-505.67894	1284.49127	-311.83405	-249.59118	1251.21826	-373.69267	-266.73235	1208.55301	-16.10424	-389.50802	1611.57547	-187.1566	-227.01481	1665.35294	-165.25393	-435.78468	1793.76434	-191.60013	-238.03402	1769.74716	-239.34307	-297.94142	1778.21106	-92.46933	-223.92811	1652.91489	-278.38694	-331.87786	1805.14206	-457.05242	-409.83879	1777.65106	-418.09719	-325.6184	1829.61975	-367.62936	-467.02877	2123.12149	-495.28362	-456.45958	2134.81094	-449.72057	-491.78505	2117.73743	-420.19211	-299.6524	1518.10913	78.99555	-340.70793	1197.9409	108.65369	-253.81784	1194.08485	99.47006	-264.06113	886.22864	143.68148	-306.72981	876.47232	161.52332	-329.81651	876.20667	112.84544	-400.33173	1096.13373	-457.77187	-369.7617	1012.55783	33.08585	-429.14257	561.72478	-267.52893	-323.08224	578.80459	-335.32791	-368.26756	565.27237	-174.06002	-382.82154	540.44113	-107.95211	-256.91545	557.02732	-47.92367	-256.7503	547.82829	-197.3827	-295.76361	139.47161	-273.8586	-298.659	154.77718	-194.28518	-216.69035	141.90257	-217.99238	-333.46043	193.08813	-122.09993	-260.84259	186.63502	-78.51987	-296.84259	165.63502	-162.51987	-455.88055	1038.07076	1741.59393	-421.11015	1056.68381	1455.83206	-257.90121	1130.97649	1745.37003	-426.98994	1564.05121	1603.591	-291.04759	1588.29636	1607.38297	-452.40944	1784.14093	1604.64172	-295.62777	1725.03922	1527.10739	-303.14932	1724.51035	1682.13638	-367.55444	1495.3717	1408.85193	-325.14797	1195.59906	1267.78503	-363.89225	1179.05975	1331.03043	-399.12155	1241.92703	1253.5276	-479.09615	1005.2137	1193.99742	-529.76746	1033.14362	1184.49936	-536.89186	1036.3163	1238.55469	-365.81841	1498.4726	1825.62668	-371.30054	1183.37746	1886.63437	-394.65004	1244.93706	1960.27588	-328.09994	1198.32794	1955.00778	-488.20526	1002.43973	2012.59491	-525.66391	1021.08017	2000.61462	-524.77325	1020.30273	1949.50607	-328.42113	1004.95918	1408.70239	-315.93611	1009.84642	1809.30679	-374.36298	455.67131	1450.11429	-274.48318	491.15139	1423.24799	-282.39029	458.48015	1543.07617	-356.6095	448.70461	1771.3649	-243.98476	486.16055	1787.76611	-315.38786	444.32346	1679.84558	-323.87486	130.54616	1417.6973	-295.09501	126.85152	1482.49832	-243.6257	128.14259	1418.3252	-323.14255	135.20901	1792.85355	-250.47356	124.97884	1806.98349	-293.73003	124.37169	1733.55682	-230.76204	1145.59113	1528.18466	-320.12547	1168.50906	23.46925
53	34.367	-532.64099	1240.68771	-86.90352	-505.52643	1284.24759	-312.02444	-249.35843	1251.01845	-373.58173	-263.19031	1210.90454	-15.10839	-389.61517	1611.6069	-187.00655	-227.12196	1665.38422	-165.10387	-435.34336	1794.08707	-191.63315	-238.91579	1770.33829	-236.10718	-297.78454	1778.16208	-92.19661	-223.97726	1653.12408	-278.56018	-332.27512	1804.83154	-457.81731	-410.23643	1777.05292	-419.1069	-326.50898	1829.43039	-368.4243	-468.5413	2122.4826	-496.1438	-458.16341	2134.24347	-450.42976	-493.35701	2117.00729	-421.1845	-298.461	1517.07748	78.54172	-341.76193	1199.15672	116.15232	-255.37762	1193.11142	103.81337	-269.28219	886.94992	156.45055	-312.42197	878.04573	174.34528	-335.36621	876.90422	125.64816	-400.23018	1095.78819	-457.75753	-368.21228	1012.06863	32.57375	-429.11198	561.72768	-267.34793	-323.04783	578.76503	-335.16273	-368.09559	565.23354	-173.92815	-382.65648	540.47272	-107.67992	-256.7001	556.97273	-47.86782	-256.66269	547.77748	-197.30339	-295.82495	139.44939	-273.79948	-298.62965	154.7362	-194.12584	-216.69018	141.85519	-217.96864	-333.38627	193.06149	-122.01421	-260.76258	186.59279	-78.54144	-296.76258	165.59279	-162.54144	-456.66634	1037.93686	1741.28647	-420.57915	1056.3887	1455.36057	-258.53745	1131.0173	1745.69977	-429.15157	1563.87054	1603.26569	-293.50489	1587.8717	1607.40952	-452.72575	1784.38156	1604.67224	-296.50715	1724.11346	1527.15485	-303.80138	1723.81088	1682.13654	-369.47056	1492.98248	1408.12912	-320.73547	1188.81798	1275.18959	-358.48305	1171.48682	1338.79669	-396.89919	1230.76332	1259.543	-462.86674	988.68408	1205.09377	-514.91692	1013.28842	1194.77684	-522.16759	1016.96243	1248.70644	-369.80965	1496.24847	1825.88959	-365.60879	1175.09811	1877.7829	-395.15244	1234.9614	1953.27667	-324.90257	1191.94542	1946.64551	-469.37134	985.92415	2004.03076	-508.13866	1001.36261	1991.9986	-507.65053	1001.13243	1940.66284	-327.97672	1004.88335	1408.8826	-316.84687	1009.92691	1809.49219	-373.8142	455.73387	1449.94202	-273.94949	491.08471	1423.22861	-282.06732	458.50365	1543.0484	-356.60202	448.66516	1771.26221	-244.09332	486.15334	1787.86835	-315.17212	444.3261	1679.76013	-323.87932	130.54265	1417.57599	-295.01919	126.84372	1482.43073	-243.5199	128.06025	1418.31024	-323.14339	135.22554	1792.80853	-250.51067	124.97884	1807.06558	-293.64862	124.37383	1733.5672	-230.73042	1145.71999	1528.50311	-321.33018	1168.6377	29.32557
54	34.383	-532.04815	1240.68222	-87.01828	-505.40276	1284.03793	-312.19721	-249.15483	1250.96695	-373.65612	-261.2571	1212.31049	-15.03399	-389.69879	1611.56754	-186.76975	-227.2056	1665.34485	-164.8671	-434.94522	1794.30038	-191.56036	-237.32452	1769.56375	-237.11576	-298.16774	1778.06656	-91.22705	-224.38307	1653.31802	-278.85387	-332.78564	1804.69955	-458.51059	-410.905	1776.7099	-420.07008	-327.21596	1829.46304	-369.24057	-470.27363	2122.03156	-497.16858	-460.21793	2133.73352	-451.31172	-495.25116	2116.08353	-422.25006	-296.69437	1516.04889	78.47796	-342.79076	1201.29753	125.09462	-257.4276	1192.30003	109.0134	-276.283	888.77342	171.99984	-319.98461	880.69443	189.5446	-342.06974	878.77876	140.40126	-400.08259	1095.47798	-457.73769	-367.76844	1012.20718	32.72494	-429.07387	561.69731	-267.05837	-323.01041	578.68526	-334.99546	-368.03436	565.25299	-173.5947	-382.26059	540.40783	-107.5322	-256.36799	556.97571	-47.8527	-256.54421	547.71378	-197.2521	-295.88594	139.37775	-273.72101	-298.61984	154.70303	-193.90234	-216.64593	141.80151	-217.88998	-333.29113	193.09145	-121.91401	-260.98301	186.58802	-79.36495	-296.98301	165.58802	-163.36495	-457.14336	1037.65472	1740.88593	-420.48557	1056.43501	1455.30334	-259.25312	1131.09474	1745.93811	-431.34422	1563.70407	1603.21243	-295.8003	1587.47345	1607.4028	-453.09521	1784.67865	1604.76746	-297.38501	1723.21045	1527.31552	-304.5969	1723.16864	1682.13867	-371.84963	1490.55588	1407.32651	-316.08204	1182.8463	1282.61017	-352.68322	1164.84207	1346.65695	-394.16553	1220.72472	1266.33156	-446.92772	974.50577	1216.5834	-500.44621	996.04668	1205.90515	-508.26092	1000.47989	1260.04631	-373.47488	1494.24042	1826.06842	-360.62435	1168.29178	1868.27621	-393.04302	1225.19226	1946.21384	-321.44291	1185.9935	1937.20596	-450.21614	971.74866	1994.49341	-490.84801	984.50035	1982.64618	-490.13237	984.49112	1931.46927	-327.62154	1004.85626	1408.927	-317.2937	1009.65469	1809.20288	-373.41862	455.65933	1450.01801	-273.49897	491.09894	1423.0748	-281.5357	458.5965	1543.13034	-356.61522	448.60519	1771.16913	-244.22178	486.16947	1787.92404	-315.01144	444.25793	1679.68124	-323.67073	130.57173	1417.61841	-294.93118	126.89832	1482.39777	-243.44429	128.02244	1418.27332	-323.13919	135.21149	1792.77756	-250.56469	124.99504	1807.11227	-293.58288	124.34009	1733.53668	-230.86567	1145.7933	1528.68271	-322.76737	1169.30992	36.33209
